<svg width="1280" height="720" xmlns="http://www.w3.org/2000/svg" xmlns:xlink="http://www.w3.org/1999/xlink" overflow="hidden"><defs><filter id="fx0" x="-10%" y="-10%" width="120%" height="120%" filterUnits="userSpaceOnUse" primitiveUnits="userSpaceOnUse"><feComponentTransfer color-interpolation-filters="sRGB"><feFuncR type="discrete" tableValues="0.0431373 0.0431373"/><feFuncG type="discrete" tableValues="0.117647 0.117647"/><feFuncB type="discrete" tableValues="0.192157 0.192157"/><feFuncA type="linear" slope="1" intercept="0"/></feComponentTransfer><feGaussianBlur stdDeviation="0 0"/></filter><filter id="fx1" x="-10%" y="-10%" width="120%" height="120%" filterUnits="userSpaceOnUse" primitiveUnits="userSpaceOnUse"><feComponentTransfer color-interpolation-filters="sRGB"><feFuncR type="discrete" tableValues="0.0431373 0.0431373"/><feFuncG type="discrete" tableValues="0.117647 0.117647"/><feFuncB type="discrete" tableValues="0.192157 0.192157"/><feFuncA type="linear" slope="1" intercept="0"/></feComponentTransfer><feGaussianBlur stdDeviation="0 0"/></filter><filter id="fx2" x="-10%" y="-10%" width="120%" height="120%" filterUnits="userSpaceOnUse" primitiveUnits="userSpaceOnUse"><feComponentTransfer color-interpolation-filters="sRGB"><feFuncR type="discrete" tableValues="0.0431373 0.0431373"/><feFuncG type="discrete" tableValues="0.117647 0.117647"/><feFuncB type="discrete" tableValues="0.192157 0.192157"/><feFuncA type="linear" slope="1" intercept="0"/></feComponentTransfer><feGaussianBlur stdDeviation="0 0"/></filter><filter id="fx3" x="-10%" y="-10%" width="120%" height="120%" filterUnits="userSpaceOnUse" primitiveUnits="userSpaceOnUse"><feComponentTransfer color-interpolation-filters="sRGB"><feFuncR type="discrete" tableValues="0.0431373 0.0431373"/><feFuncG type="discrete" tableValues="0.117647 0.117647"/><feFuncB type="discrete" tableValues="0.192157 0.192157"/><feFuncA type="linear" slope="1" intercept="0"/></feComponentTransfer><feGaussianBlur stdDeviation="0 0"/></filter><clipPath id="clip4"><rect x="0" y="1" width="46" height="50"/></clipPath><clipPath id="clip5"><rect x="1" y="0" width="195" height="50"/></clipPath><clipPath id="clip6"><rect x="0" y="1" width="47" height="50"/></clipPath><clipPath id="clip7"><rect x="0" y="1" width="98" height="49"/></clipPath></defs><g><rect x="0" y="0" width="1280" height="720" fill="#FFFFFF"/><g clip-path="url(#clip4)" filter="url(#fx0)" transform="translate(445 335)"><g><path d="M24.3181 1.58795C28.0213 1.58795 31.4314 2.22662 34.5486 3.50397 37.6658 4.78131 40.1971 6.66803 42.1424 9.16412 44.0877 11.6602 45.1541 14.7364 45.3416 18.3926L35.2166 18.3926C34.9588 16.4708 34.3318 14.877 33.3357 13.6114 32.3396 12.3458 31.0681 11.3965 29.5213 10.7637 27.9744 10.1309 26.24 9.81451 24.3181 9.81451 21.2244 9.81451 18.7342 10.5645 16.8474 12.0645 14.9607 13.5645 13.5896 15.5274 12.7342 17.9532 11.8787 20.379 11.451 23.0333 11.451 25.9161 11.451 28.7755 11.8787 31.4239 12.7342 33.8614 13.5896 36.2989 14.9607 38.2559 16.8474 39.7325 18.7342 41.209 21.2244 41.9473 24.3181 41.9473 27.576 41.9473 30.1482 41.1094 32.0349 39.4337 33.9217 37.7579 35.0056 35.3731 35.2869 32.2794L45.4119 32.2794C45.1306 36.1465 44.1111 39.4102 42.3533 42.0704 40.5955 44.7305 38.1931 46.7462 35.1463 48.1172 32.0994 49.4883 28.49 50.1739 24.3181 50.1739 19.5369 50.1739 15.4236 49.1719 11.9783 47.168 8.53299 45.1641 5.88455 42.3516 4.03299 38.7305 2.18143 35.1094 1.25565 30.838 1.25565 25.9161 1.25565 20.9942 2.18143 16.711 4.03299 13.0665 5.88455 9.42194 8.53299 6.59772 11.9783 4.59381 15.4236 2.5899 19.5369 1.58795 24.3181 1.58795Z" stroke="#0B1E31" stroke-linejoin="round" stroke-miterlimit="10" fill="#FF0000" fill-rule="evenodd"/></g></g><path d="M467.03 334.378C470.733 334.378 474.143 335.017 477.26 336.294 480.377 337.571 482.909 339.458 484.854 341.954 486.799 344.45 487.866 347.527 488.053 351.183L477.928 351.183C477.67 349.261 477.043 347.667 476.047 346.402 475.051 345.136 473.78 344.187 472.233 343.554 470.686 342.921 468.952 342.605 467.03 342.605 463.936 342.605 461.446 343.355 459.559 344.855 457.672 346.355 456.301 348.318 455.446 350.743 454.59 353.169 454.163 355.823 454.163 358.706 454.163 361.566 454.59 364.214 455.446 366.652 456.301 369.089 457.672 371.046 459.559 372.523 461.446 373.999 463.936 374.737 467.03 374.737 470.288 374.737 472.86 373.9 474.747 372.224 476.633 370.548 477.717 368.163 477.999 365.07L488.124 365.07C487.842 368.937 486.823 372.2 485.065 374.861 483.307 377.521 480.905 379.536 477.858 380.907 474.811 382.279 471.202 382.964 467.03 382.964 462.249 382.964 458.135 381.962 454.69 379.958 451.245 377.954 448.596 375.142 446.745 371.521 444.893 367.9 443.967 363.628 443.967 358.706 443.967 353.784 444.893 349.501 446.745 345.857 448.596 342.212 451.245 339.388 454.69 337.384 458.135 335.38 462.249 334.378 467.03 334.378Z" stroke="#0B1E31" stroke-linejoin="round" stroke-miterlimit="10" fill="#FF0000" fill-rule="evenodd"/><text fill="#000000" fill-opacity="0" font-family="Arial,Arial_MSFontService,sans-serif" font-size="48.5859" x="443.967" y="376.891">C</text><g clip-path="url(#clip5)" filter="url(#fx1)" transform="translate(495 336)"><g><path d="M153.175 20.8028C151.183 20.8028 149.618 21.2833 148.482 22.2442 147.345 23.2051 146.542 24.4942 146.073 26.1114 145.605 27.7286 145.37 29.5215 145.37 31.4903 145.37 33.4122 145.605 35.17 146.073 36.7637 146.542 38.3575 147.345 39.629 148.482 40.5782 149.618 41.5274 151.183 42.002 153.175 42.002 155.214 42.002 156.814 41.5274 157.974 40.5782 159.134 39.629 159.954 38.3575 160.435 36.7637 160.915 35.17 161.155 33.4122 161.155 31.4903 161.155 29.5215 160.915 27.7286 160.435 26.1114 159.954 24.4942 159.134 23.2051 157.974 22.2442 156.814 21.2833 155.214 20.8028 153.175 20.8028ZM19.1749 20.8028C17.1827 20.8028 15.6183 21.2833 14.4816 22.2442 13.3449 23.2051 12.5421 24.4942 12.0734 26.1114 11.6046 27.7286 11.3702 29.5215 11.3702 31.4903 11.3702 33.4122 11.6046 35.17 12.0734 36.7637 12.5421 38.3575 13.3449 39.629 14.4816 40.5782 15.6183 41.5274 17.1827 42.002 19.1749 42.002 21.214 42.002 22.8136 41.5274 23.9738 40.5782 25.1339 39.629 25.9542 38.3575 26.4347 36.7637 26.9152 35.17 27.1554 33.4122 27.1554 31.4903 27.1554 29.5215 26.9152 27.7286 26.4347 26.1114 25.9542 24.4942 25.1339 23.2051 23.9738 22.2442 22.8136 21.2833 21.214 20.8028 19.1749 20.8028ZM132.183 13.7715 132.886 13.7715 132.886 21.6114 132.007 21.6114C130.624 21.6114 129.3 21.7344 128.034 21.9805 126.769 22.2266 125.62 22.6485 124.589 23.2462 123.558 23.8438 122.667 24.67 121.917 25.7247L121.917 48.5411 112.601 48.5411 112.601 14.2286 121.53 14.2286 121.706 20.17C122.597 18.1075 123.933 16.5255 125.714 15.4239 127.495 14.3223 129.651 13.7715 132.183 13.7715ZM65.589 13.7364C69.0812 13.7364 71.7882 14.7969 73.7101 16.918 75.632 19.0391 76.5929 22.1387 76.5929 26.2169L76.5929 48.5411 67.3468 48.5411 67.3468 27.4122C67.3468 26.17 67.171 25.0801 66.8195 24.1426 66.4679 23.2051 65.9113 22.4786 65.1495 21.963 64.3878 21.4473 63.3859 21.1895 62.1437 21.1895 60.2921 21.1895 58.7042 21.6231 57.38 22.4903 56.0558 23.3575 54.9015 24.4122 53.9171 25.6544L53.9171 48.5411 44.6007 48.5411 44.6007 14.2286 53.5656 14.2286 53.7413 19.3614C54.8898 17.8848 56.4015 16.5782 58.2765 15.4415 60.1515 14.3047 62.589 13.7364 65.589 13.7364ZM153.175 13.6309C156.691 13.6309 159.755 14.3282 162.368 15.7227 164.982 17.1172 167.015 19.1446 168.468 21.8048 169.921 24.4649 170.648 27.6934 170.648 31.4903 170.648 35.2169 169.921 38.3926 168.468 41.0176 167.015 43.6426 164.982 45.6465 162.368 47.0294 159.755 48.4122 156.691 49.1036 153.175 49.1036 149.706 49.1036 146.665 48.4122 144.052 47.0294 141.439 45.6465 139.417 43.6426 137.987 41.0176 136.558 38.3926 135.843 35.2169 135.843 31.4903 135.843 27.6934 136.558 24.4649 137.987 21.8048 139.417 19.1446 141.439 17.1172 144.052 15.7227 146.665 14.3282 149.706 13.6309 153.175 13.6309ZM19.1749 13.6309C22.6906 13.6309 25.755 14.3282 28.3683 15.7227 30.9816 17.1172 33.0148 19.1446 34.4679 21.8048 35.921 24.4649 36.6476 27.6934 36.6476 31.4903 36.6476 35.2169 35.921 38.3926 34.4679 41.0176 33.0148 43.6426 30.9816 45.6465 28.3683 47.0294 25.755 48.4122 22.6906 49.1036 19.1749 49.1036 15.7062 49.1036 12.6652 48.4122 10.0519 47.0294 7.4386 45.6465 5.41712 43.6426 3.98743 41.0176 2.55774 38.3926 1.8429 35.2169 1.8429 31.4903 1.8429 27.6934 2.55774 24.4649 3.98743 21.8048 5.41712 19.1446 7.4386 17.1172 10.0519 15.7227 12.6652 14.3282 15.7062 13.6309 19.1749 13.6309ZM88.0773 6.14264 97.3937 6.14264 97.3937 14.2286 104.882 14.2286 104.882 21.4005 97.3937 21.4005 97.3937 36.0255C97.3937 37.8301 97.6456 39.1661 98.1495 40.0333 98.6534 40.9005 99.796 41.334 101.577 41.334L104.882 41.334 104.882 48.5411 101.261 48.5411C97.7921 48.5411 95.1027 48.1251 93.1925 47.293 91.2823 46.461 89.9523 45.1719 89.2023 43.4258 88.4523 41.6797 88.0773 39.4005 88.0773 36.588L88.0773 21.4005 82.382 21.4005 82.382 14.2286 88.0773 14.2286ZM179.284 1.22076 188.566 1.22076 188.566 36.0255C188.566 37.8301 188.812 39.1544 189.304 39.9981 189.796 40.8419 190.944 41.2637 192.749 41.2637L194.894 41.2637 194.894 48.5411 192.468 48.5411C188.976 48.5411 186.28 48.1251 184.382 47.293 182.484 46.461 181.159 45.1719 180.409 43.4258 179.659 41.6797 179.284 39.4005 179.284 36.588Z" stroke="#0B1E31" stroke-linejoin="round" stroke-miterlimit="10" fill="#3B7D23" fill-rule="evenodd"/></g></g><path d="M645.887 354.593C643.894 354.593 642.33 355.073 641.193 356.034 640.057 356.995 639.254 358.284 638.785 359.902 638.316 361.519 638.082 363.312 638.082 365.28 638.082 367.202 638.316 368.96 638.785 370.554 639.254 372.148 640.057 373.419 641.193 374.368 642.33 375.318 643.894 375.792 645.887 375.792 647.926 375.792 649.525 375.318 650.685 374.368 651.846 373.419 652.666 372.148 653.146 370.554 653.627 368.96 653.867 367.202 653.867 365.28 653.867 363.312 653.627 361.519 653.146 359.902 652.666 358.284 651.846 356.995 650.685 356.034 649.525 355.073 647.926 354.593 645.887 354.593ZM511.887 354.593C509.894 354.593 508.33 355.073 507.193 356.034 506.056 356.995 505.254 358.284 504.785 359.902 504.316 361.519 504.082 363.312 504.082 365.28 504.082 367.202 504.316 368.96 504.785 370.554 505.254 372.148 506.056 373.419 507.193 374.368 508.33 375.318 509.894 375.792 511.887 375.792 513.926 375.792 515.525 375.318 516.685 374.368 517.846 373.419 518.666 372.148 519.146 370.554 519.627 368.96 519.867 367.202 519.867 365.28 519.867 363.312 519.627 361.519 519.146 359.902 518.666 358.284 517.846 356.995 516.685 356.034 515.525 355.073 513.926 354.593 511.887 354.593ZM624.894 347.562 625.598 347.562 625.598 355.402 624.719 355.402C623.336 355.402 622.012 355.525 620.746 355.771 619.48 356.017 618.332 356.439 617.301 357.036 616.269 357.634 615.379 358.46 614.629 359.515L614.629 382.331 605.312 382.331 605.312 348.019 614.242 348.019 614.418 353.96C615.308 351.898 616.644 350.316 618.426 349.214 620.207 348.112 622.363 347.562 624.894 347.562ZM558.301 347.527C561.793 347.527 564.5 348.587 566.422 350.708 568.344 352.829 569.305 355.929 569.305 360.007L569.305 382.331 560.058 382.331 560.058 361.202C560.058 359.96 559.883 358.87 559.531 357.933 559.18 356.995 558.623 356.269 557.861 355.753 557.099 355.237 556.098 354.98 554.855 354.98 553.004 354.98 551.416 355.413 550.092 356.28 548.767 357.148 547.613 358.202 546.629 359.445L546.629 382.331 537.312 382.331 537.312 348.019 546.277 348.019 546.453 353.152C547.601 351.675 549.113 350.368 550.988 349.232 552.863 348.095 555.301 347.527 558.301 347.527ZM645.887 347.421C649.402 347.421 652.467 348.118 655.08 349.513 657.693 350.907 659.726 352.935 661.18 355.595 662.633 358.255 663.359 361.484 663.359 365.28 663.359 369.007 662.633 372.183 661.18 374.808 659.726 377.433 657.693 379.437 655.08 380.82 652.467 382.202 649.402 382.894 645.887 382.894 642.418 382.894 639.377 382.202 636.764 380.82 634.15 379.437 632.129 377.433 630.699 374.808 629.269 372.183 628.555 369.007 628.555 365.28 628.555 361.484 629.269 358.255 630.699 355.595 632.129 352.935 634.15 350.907 636.764 349.513 639.377 348.118 642.418 347.421 645.887 347.421ZM511.887 347.421C515.402 347.421 518.467 348.118 521.08 349.513 523.693 350.907 525.726 352.935 527.18 355.595 528.633 358.255 529.359 361.484 529.359 365.28 529.359 369.007 528.633 372.183 527.18 374.808 525.726 377.433 523.693 379.437 521.08 380.82 518.467 382.202 515.402 382.894 511.887 382.894 508.418 382.894 505.377 382.202 502.764 380.82 500.15 379.437 498.129 377.433 496.699 374.808 495.269 372.183 494.555 369.007 494.555 365.28 494.555 361.484 495.269 358.255 496.699 355.595 498.129 352.935 500.15 350.907 502.764 349.513 505.377 348.118 508.418 347.421 511.887 347.421ZM580.789 339.933 590.105 339.933 590.105 348.019 597.594 348.019 597.594 355.191 590.105 355.191 590.105 369.816C590.105 371.62 590.357 372.956 590.861 373.823 591.365 374.691 592.508 375.124 594.289 375.124L597.594 375.124 597.594 382.331 593.973 382.331C590.504 382.331 587.814 381.915 585.904 381.083 583.994 380.251 582.664 378.962 581.914 377.216 581.164 375.47 580.789 373.191 580.789 370.378L580.789 355.191 575.094 355.191 575.094 348.019 580.789 348.019ZM671.996 335.011 681.277 335.011 681.277 369.816C681.277 371.62 681.523 372.945 682.016 373.788 682.508 374.632 683.656 375.054 685.461 375.054L687.605 375.054 687.605 382.331 685.18 382.331C681.687 382.331 678.992 381.915 677.094 381.083 675.195 380.251 673.871 378.962 673.121 377.216 672.371 375.47 671.996 373.191 671.996 370.378Z" stroke="#0B1E31" stroke-linejoin="round" stroke-miterlimit="10" fill="#3B7D23" fill-rule="evenodd"/><text fill="#000000" fill-opacity="0" font-family="Arial,Arial_MSFontService,sans-serif" font-size="47.8828" x="494.555" y="376.908">ontrol</text><g clip-path="url(#clip6)" filter="url(#fx2)" transform="translate(693 335)"><g><path d="M24.3891 1.58795C26.8266 1.58795 29.2172 1.90436 31.561 2.53717 33.9047 3.16998 36.0493 4.1485 37.9946 5.47272 39.9399 6.79694 41.5453 8.47858 42.811 10.5176 44.0766 12.5567 44.8383 14.9708 45.0961 17.7598L35.0063 17.7598C34.8188 16.213 34.2797 14.8419 33.3891 13.6465 32.4985 12.4512 31.2797 11.5137 29.7328 10.834 28.186 10.1544 26.3344 9.81451 24.1782 9.81451 21.0844 9.81451 18.5883 10.5587 16.6899 12.0469 14.7914 13.5352 13.4086 15.4922 12.5414 17.918 11.6743 20.3438 11.2407 23.0098 11.2407 25.9161 11.2407 28.7989 11.6801 31.459 12.559 33.8965 13.4379 36.334 14.8383 38.2911 16.7602 39.7676 18.6821 41.2442 21.225 41.9825 24.3891 41.9825 26.7328 41.9825 28.7309 41.5782 30.3832 40.7696 32.0356 39.961 33.3246 38.8419 34.2504 37.4122 35.1762 35.9825 35.7094 34.3301 35.85 32.4551L24.6352 32.4551 24.6352 24.5801 45.7641 24.5801 45.7641 29.3965C45.7641 33.4981 44.9379 37.1075 43.2856 40.2247 41.6332 43.3419 39.2192 45.7794 36.0434 47.5372 32.8676 49.295 28.9828 50.1739 24.3891 50.1739 19.5375 50.1739 15.3774 49.1719 11.9086 47.168 8.43988 45.1641 5.77387 42.3458 3.91058 38.713 2.0473 35.0801 1.11566 30.8145 1.11566 25.9161 1.11566 20.9942 2.0473 16.711 3.91058 13.0665 5.77387 9.42194 8.43988 6.59772 11.9086 4.59381 15.3774 2.5899 19.5375 1.58795 24.3891 1.58795Z" stroke="#0B1E31" stroke-linejoin="round" stroke-miterlimit="10" fill="#FF0000" fill-rule="evenodd"/></g></g><path d="M715.101 334.378C717.538 334.378 719.929 334.695 722.273 335.327 724.616 335.96 726.761 336.939 728.706 338.263 730.651 339.587 732.257 341.269 733.523 343.308 734.788 345.347 735.55 347.761 735.808 350.55L725.718 350.55C725.53 349.003 724.991 347.632 724.101 346.437 723.21 345.241 721.991 344.304 720.444 343.624 718.898 342.945 717.046 342.605 714.89 342.605 711.796 342.605 709.3 343.349 707.401 344.837 705.503 346.325 704.12 348.282 703.253 350.708 702.386 353.134 701.952 355.8 701.952 358.706 701.952 361.589 702.392 364.249 703.271 366.687 704.15 369.124 705.55 371.081 707.472 372.558 709.394 374.034 711.937 374.773 715.101 374.773 717.444 374.773 719.443 374.368 721.095 373.56 722.747 372.751 724.036 371.632 724.962 370.202 725.888 368.773 726.421 367.12 726.562 365.245L715.347 365.245 715.347 357.37 736.476 357.37 736.476 362.187C736.476 366.288 735.65 369.898 733.997 373.015 732.345 376.132 729.931 378.57 726.755 380.327 723.579 382.085 719.694 382.964 715.101 382.964 710.249 382.964 706.089 381.962 702.62 379.958 699.151 377.954 696.485 375.136 694.622 371.503 692.759 367.87 691.827 363.605 691.827 358.706 691.827 353.784 692.759 349.501 694.622 345.857 696.485 342.212 699.151 339.388 702.62 337.384 706.089 335.38 710.249 334.378 715.101 334.378Z" stroke="#0B1E31" stroke-linejoin="round" stroke-miterlimit="10" fill="#FF0000" fill-rule="evenodd"/><text fill="#000000" fill-opacity="0" font-family="Arial,Arial_MSFontService,sans-serif" font-size="48.5859" x="691.827" y="376.891">G</text><g clip-path="url(#clip7)" filter="url(#fx3)" transform="translate(741 348)"><g><path d="M1.30188 2.22858 11.005 2.22858 19.6886 27.6114 27.423 2.22858 36.8448 2.22858 24.505 36.5411 23.2394 39.9512C22.3488 42.3653 21.3175 44.2403 20.1456 45.5762 18.9738 46.9122 17.5382 47.838 15.839 48.3536 14.1398 48.8692 12.0245 49.127 9.49329 49.127L5.30969 49.127 5.30969 41.5684 8.40344 41.5684C9.78626 41.5684 10.9406 41.3223 11.8663 40.8301 12.7921 40.338 13.4659 39.5294 13.8878 38.4044L14.6613 36.5411ZM63.423 1.73639C66.8683 1.73639 69.5109 2.82037 71.3507 4.98834 71.8107 5.53033 72.2131 6.12909 72.5581 6.78461L72.9385 7.72713 72.9152 7.60748C74.3917 6.03717 76.2023 4.66608 78.3468 3.4942 80.4913 2.32233 83.0167 1.73639 85.923 1.73639 89.3448 1.73639 91.9874 2.82037 93.8507 4.98834 95.714 7.15631 96.6456 10.2325 96.6456 14.2169L96.6456 36.5411 87.3292 36.5411 87.3292 15.4122C87.3292 14.17 87.1593 13.0801 86.8195 12.1426 86.4796 11.2051 85.9288 10.4786 85.1671 9.96295 84.4054 9.44733 83.4152 9.18952 82.1964 9.18952 80.3917 9.18952 78.839 9.58795 77.5382 10.3848 76.8878 10.7833 76.2711 11.2315 75.6881 11.7296L74.0578 13.3556 74.1105 14.2169 74.1105 36.5411 64.7941 36.5411 64.7941 15.4122C64.7941 14.17 64.6241 13.0801 64.2843 12.1426 63.9445 11.2051 63.3937 10.4786 62.632 9.96295 61.8702 9.44733 60.88 9.18952 59.6613 9.18952 57.8566 9.18952 56.3097 9.62311 55.0206 10.4903 53.7316 11.3575 52.5948 12.4122 51.6105 13.6544L51.6105 36.5411 42.2941 36.5411 42.2941 2.22858 51.2589 2.22858 51.4347 7.36139C52.5597 5.88483 54.1124 4.57819 56.0929 3.44147 58.0734 2.30475 60.5167 1.73639 63.423 1.73639Z" stroke="#0B1E31" stroke-linejoin="round" stroke-miterlimit="10" fill="#FFC000" fill-rule="evenodd"/></g></g><path d="M740.013 348.019 749.717 348.019 758.4 373.402 766.135 348.019 775.556 348.019 763.217 382.331 761.951 385.741C761.06 388.155 760.029 390.03 758.857 391.366 757.685 392.702 756.25 393.628 754.551 394.144 752.851 394.659 750.736 394.917 748.205 394.917L744.021 394.917 744.021 387.359 747.115 387.359C748.498 387.359 749.652 387.112 750.578 386.62 751.504 386.128 752.178 385.32 752.599 384.195L753.373 382.331ZM802.135 347.527C805.58 347.527 808.222 348.611 810.062 350.779 810.522 351.32 810.925 351.919 811.27 352.575L811.65 353.517 811.627 353.398C813.103 351.827 814.914 350.456 817.058 349.284 819.203 348.112 821.728 347.527 824.635 347.527 828.056 347.527 830.699 348.611 832.562 350.779 834.426 352.946 835.357 356.023 835.357 360.007L835.357 382.331 826.041 382.331 826.041 361.202C826.041 359.96 825.871 358.87 825.531 357.933 825.191 356.995 824.64 356.269 823.879 355.753 823.117 355.237 822.127 354.98 820.908 354.98 819.103 354.98 817.551 355.378 816.25 356.175 815.599 356.573 814.983 357.022 814.4 357.52L812.769 359.146 812.822 360.007 812.822 382.331 803.506 382.331 803.506 361.202C803.506 359.96 803.336 358.87 802.996 357.933 802.656 356.995 802.105 356.269 801.344 355.753 800.582 355.237 799.592 354.98 798.373 354.98 796.568 354.98 795.021 355.413 793.732 356.28 792.443 357.148 791.306 358.202 790.322 359.445L790.322 382.331 781.006 382.331 781.006 348.019 789.971 348.019 790.146 353.152C791.271 351.675 792.824 350.368 794.805 349.232 796.785 348.095 799.228 347.527 802.135 347.527Z" stroke="#0B1E31" stroke-linejoin="round" stroke-miterlimit="10" fill="#FFC000" fill-rule="evenodd"/><text fill="#000000" fill-opacity="0" font-family="Arial,Arial_MSFontService,sans-serif" font-size="47.3906" x="740.013" y="388.993">ym</text></g></svg>